<mxfile host="Electron" modified="2023-11-15T10:56:46.276Z" agent="Mozilla/5.0 (Windows NT 10.0; Win64; x64) AppleWebKit/537.36 (KHTML, like Gecko) draw.io/22.0.3 Chrome/114.0.5735.289 Electron/25.8.4 Safari/537.36" etag="K4K9l6nWVvIxxAyz_a49" version="22.0.3" type="device">
  <diagram name="Página-1" id="oN2VH1VchXN3S7DK6CXB">
    <mxGraphModel dx="1009" dy="619" grid="1" gridSize="10" guides="1" tooltips="1" connect="1" arrows="1" fold="1" page="1" pageScale="1" pageWidth="827" pageHeight="1169" math="0" shadow="0">
      <root>
        <mxCell id="0" />
        <mxCell id="1" parent="0" />
        <mxCell id="RrL7QoBvlQFaUlttI1s7-1" value="" style="rounded=0;whiteSpace=wrap;html=1;sketch=1;hachureGap=4;jiggle=2;curveFitting=1;fontFamily=Architects Daughter;fontSource=https%3A%2F%2Ffonts.googleapis.com%2Fcss%3Ffamily%3DArchitects%2BDaughter;fontSize=20;" vertex="1" parent="1">
          <mxGeometry x="39" y="40" width="750" height="470" as="geometry" />
        </mxCell>
        <mxCell id="RrL7QoBvlQFaUlttI1s7-8" value="" style="rounded=0;whiteSpace=wrap;html=1;sketch=1;hachureGap=4;jiggle=2;curveFitting=1;fontFamily=Architects Daughter;fontSource=https%3A%2F%2Ffonts.googleapis.com%2Fcss%3Ffamily%3DArchitects%2BDaughter;fontSize=20;" vertex="1" parent="1">
          <mxGeometry x="170" y="50" width="540" height="450" as="geometry" />
        </mxCell>
        <mxCell id="RrL7QoBvlQFaUlttI1s7-15" style="edgeStyle=orthogonalEdgeStyle;rounded=0;sketch=1;hachureGap=4;jiggle=2;curveFitting=1;orthogonalLoop=1;jettySize=auto;html=1;fontFamily=Architects Daughter;fontSource=https%3A%2F%2Ffonts.googleapis.com%2Fcss%3Ffamily%3DArchitects%2BDaughter;fontSize=16;" edge="1" parent="1" source="RrL7QoBvlQFaUlttI1s7-2" target="RrL7QoBvlQFaUlttI1s7-12">
          <mxGeometry relative="1" as="geometry" />
        </mxCell>
        <mxCell id="RrL7QoBvlQFaUlttI1s7-2" value="Persona" style="shape=umlActor;verticalLabelPosition=bottom;verticalAlign=top;html=1;outlineConnect=0;sketch=1;hachureGap=4;jiggle=2;curveFitting=1;fontFamily=Architects Daughter;fontSource=https%3A%2F%2Ffonts.googleapis.com%2Fcss%3Ffamily%3DArchitects%2BDaughter;fontSize=20;" vertex="1" parent="1">
          <mxGeometry x="110" y="80" width="30" height="60" as="geometry" />
        </mxCell>
        <mxCell id="RrL7QoBvlQFaUlttI1s7-16" style="edgeStyle=orthogonalEdgeStyle;rounded=0;sketch=1;hachureGap=4;jiggle=2;curveFitting=1;orthogonalLoop=1;jettySize=auto;html=1;entryX=0;entryY=0.5;entryDx=0;entryDy=0;fontFamily=Architects Daughter;fontSource=https%3A%2F%2Ffonts.googleapis.com%2Fcss%3Ffamily%3DArchitects%2BDaughter;fontSize=16;" edge="1" parent="1" source="RrL7QoBvlQFaUlttI1s7-3" target="RrL7QoBvlQFaUlttI1s7-13">
          <mxGeometry relative="1" as="geometry">
            <Array as="points">
              <mxPoint x="200" y="230" />
              <mxPoint x="200" y="160" />
            </Array>
          </mxGeometry>
        </mxCell>
        <mxCell id="RrL7QoBvlQFaUlttI1s7-27" style="edgeStyle=orthogonalEdgeStyle;rounded=0;sketch=1;hachureGap=4;jiggle=2;curveFitting=1;orthogonalLoop=1;jettySize=auto;html=1;entryX=0;entryY=0.5;entryDx=0;entryDy=0;fontFamily=Architects Daughter;fontSource=https%3A%2F%2Ffonts.googleapis.com%2Fcss%3Ffamily%3DArchitects%2BDaughter;fontSize=16;" edge="1" parent="1" source="RrL7QoBvlQFaUlttI1s7-3" target="RrL7QoBvlQFaUlttI1s7-20">
          <mxGeometry relative="1" as="geometry" />
        </mxCell>
        <mxCell id="RrL7QoBvlQFaUlttI1s7-28" style="edgeStyle=orthogonalEdgeStyle;rounded=0;sketch=1;hachureGap=4;jiggle=2;curveFitting=1;orthogonalLoop=1;jettySize=auto;html=1;entryX=0;entryY=0.5;entryDx=0;entryDy=0;fontFamily=Architects Daughter;fontSource=https%3A%2F%2Ffonts.googleapis.com%2Fcss%3Ffamily%3DArchitects%2BDaughter;fontSize=16;" edge="1" parent="1" source="RrL7QoBvlQFaUlttI1s7-3" target="RrL7QoBvlQFaUlttI1s7-22">
          <mxGeometry relative="1" as="geometry" />
        </mxCell>
        <mxCell id="RrL7QoBvlQFaUlttI1s7-29" style="edgeStyle=orthogonalEdgeStyle;rounded=0;sketch=1;hachureGap=4;jiggle=2;curveFitting=1;orthogonalLoop=1;jettySize=auto;html=1;entryX=0;entryY=0.5;entryDx=0;entryDy=0;fontFamily=Architects Daughter;fontSource=https%3A%2F%2Ffonts.googleapis.com%2Fcss%3Ffamily%3DArchitects%2BDaughter;fontSize=16;" edge="1" parent="1" source="RrL7QoBvlQFaUlttI1s7-3" target="RrL7QoBvlQFaUlttI1s7-19">
          <mxGeometry relative="1" as="geometry" />
        </mxCell>
        <mxCell id="RrL7QoBvlQFaUlttI1s7-3" value="Usuario" style="shape=umlActor;verticalLabelPosition=bottom;verticalAlign=top;html=1;outlineConnect=0;sketch=1;hachureGap=4;jiggle=2;curveFitting=1;fontFamily=Architects Daughter;fontSource=https%3A%2F%2Ffonts.googleapis.com%2Fcss%3Ffamily%3DArchitects%2BDaughter;fontSize=20;" vertex="1" parent="1">
          <mxGeometry x="110" y="200" width="30" height="60" as="geometry" />
        </mxCell>
        <mxCell id="RrL7QoBvlQFaUlttI1s7-26" style="edgeStyle=orthogonalEdgeStyle;rounded=0;sketch=1;hachureGap=4;jiggle=2;curveFitting=1;orthogonalLoop=1;jettySize=auto;html=1;entryX=0;entryY=0.5;entryDx=0;entryDy=0;fontFamily=Architects Daughter;fontSource=https%3A%2F%2Ffonts.googleapis.com%2Fcss%3Ffamily%3DArchitects%2BDaughter;fontSize=16;" edge="1" parent="1" source="RrL7QoBvlQFaUlttI1s7-4" target="RrL7QoBvlQFaUlttI1s7-21">
          <mxGeometry relative="1" as="geometry" />
        </mxCell>
        <mxCell id="RrL7QoBvlQFaUlttI1s7-4" value="dueño&lt;br&gt;viaje" style="shape=umlActor;verticalLabelPosition=bottom;verticalAlign=top;html=1;outlineConnect=0;sketch=1;hachureGap=4;jiggle=2;curveFitting=1;fontFamily=Architects Daughter;fontSource=https%3A%2F%2Ffonts.googleapis.com%2Fcss%3Ffamily%3DArchitects%2BDaughter;fontSize=20;" vertex="1" parent="1">
          <mxGeometry x="100" y="380" width="30" height="60" as="geometry" />
        </mxCell>
        <mxCell id="RrL7QoBvlQFaUlttI1s7-12" value="Registrarse" style="ellipse;whiteSpace=wrap;html=1;sketch=1;hachureGap=4;jiggle=2;curveFitting=1;fontFamily=Architects Daughter;fontSource=https%3A%2F%2Ffonts.googleapis.com%2Fcss%3Ffamily%3DArchitects%2BDaughter;fontSize=20;" vertex="1" parent="1">
          <mxGeometry x="240" y="60" width="120" height="60" as="geometry" />
        </mxCell>
        <mxCell id="RrL7QoBvlQFaUlttI1s7-13" value="Iniciar Sesion" style="ellipse;whiteSpace=wrap;html=1;sketch=1;hachureGap=4;jiggle=2;curveFitting=1;fontFamily=Architects Daughter;fontSource=https%3A%2F%2Ffonts.googleapis.com%2Fcss%3Ffamily%3DArchitects%2BDaughter;fontSize=20;" vertex="1" parent="1">
          <mxGeometry x="250" y="130" width="120" height="60" as="geometry" />
        </mxCell>
        <mxCell id="RrL7QoBvlQFaUlttI1s7-14" value="Cerrar Sesion" style="ellipse;whiteSpace=wrap;html=1;sketch=1;hachureGap=4;jiggle=2;curveFitting=1;fontFamily=Architects Daughter;fontSource=https%3A%2F%2Ffonts.googleapis.com%2Fcss%3Ffamily%3DArchitects%2BDaughter;fontSize=20;" vertex="1" parent="1">
          <mxGeometry x="380" y="130" width="120" height="60" as="geometry" />
        </mxCell>
        <mxCell id="RrL7QoBvlQFaUlttI1s7-17" style="edgeStyle=orthogonalEdgeStyle;rounded=0;sketch=1;hachureGap=4;jiggle=2;curveFitting=1;orthogonalLoop=1;jettySize=auto;html=1;entryX=0.038;entryY=0.389;entryDx=0;entryDy=0;entryPerimeter=0;fontFamily=Architects Daughter;fontSource=https%3A%2F%2Ffonts.googleapis.com%2Fcss%3Ffamily%3DArchitects%2BDaughter;fontSize=16;" edge="1" parent="1" target="RrL7QoBvlQFaUlttI1s7-14">
          <mxGeometry relative="1" as="geometry">
            <mxPoint x="200" y="200" as="sourcePoint" />
            <Array as="points">
              <mxPoint x="385" y="200" />
            </Array>
          </mxGeometry>
        </mxCell>
        <mxCell id="RrL7QoBvlQFaUlttI1s7-19" value="Dar de alta viajes" style="ellipse;whiteSpace=wrap;html=1;sketch=1;hachureGap=4;jiggle=2;curveFitting=1;fontFamily=Architects Daughter;fontSource=https%3A%2F%2Ffonts.googleapis.com%2Fcss%3Ffamily%3DArchitects%2BDaughter;fontSize=20;" vertex="1" parent="1">
          <mxGeometry x="265" y="360" width="120" height="60" as="geometry" />
        </mxCell>
        <mxCell id="RrL7QoBvlQFaUlttI1s7-20" value="postularse para&amp;nbsp; viaje" style="ellipse;whiteSpace=wrap;html=1;sketch=1;hachureGap=4;jiggle=2;curveFitting=1;fontFamily=Architects Daughter;fontSource=https%3A%2F%2Ffonts.googleapis.com%2Fcss%3Ffamily%3DArchitects%2BDaughter;fontSize=20;" vertex="1" parent="1">
          <mxGeometry x="260" y="210" width="130" height="70" as="geometry" />
        </mxCell>
        <mxCell id="RrL7QoBvlQFaUlttI1s7-21" value="Aceptar pasajero" style="ellipse;whiteSpace=wrap;html=1;sketch=1;hachureGap=4;jiggle=2;curveFitting=1;fontFamily=Architects Daughter;fontSource=https%3A%2F%2Ffonts.googleapis.com%2Fcss%3Ffamily%3DArchitects%2BDaughter;fontSize=20;" vertex="1" parent="1">
          <mxGeometry x="260" y="430" width="120" height="60" as="geometry" />
        </mxCell>
        <mxCell id="RrL7QoBvlQFaUlttI1s7-22" value="calificar viaje" style="ellipse;whiteSpace=wrap;html=1;sketch=1;hachureGap=4;jiggle=2;curveFitting=1;fontFamily=Architects Daughter;fontSource=https%3A%2F%2Ffonts.googleapis.com%2Fcss%3Ffamily%3DArchitects%2BDaughter;fontSize=20;" vertex="1" parent="1">
          <mxGeometry x="265" y="290" width="120" height="60" as="geometry" />
        </mxCell>
        <mxCell id="RrL7QoBvlQFaUlttI1s7-24" value="" style="shape=flexArrow;endArrow=classic;html=1;rounded=0;sketch=1;hachureGap=4;jiggle=2;curveFitting=1;fontFamily=Architects Daughter;fontSource=https%3A%2F%2Ffonts.googleapis.com%2Fcss%3Ffamily%3DArchitects%2BDaughter;fontSize=16;" edge="1" parent="1">
          <mxGeometry width="50" height="50" relative="1" as="geometry">
            <mxPoint x="120" y="366.36" as="sourcePoint" />
            <mxPoint x="123.5896953742008" y="290" as="targetPoint" />
          </mxGeometry>
        </mxCell>
      </root>
    </mxGraphModel>
  </diagram>
</mxfile>
